<?xml version="1.0" standalone="no"?>
<!DOCTYPE svg PUBLIC "-//W3C//DTD SVG 1.1//EN" "http://www.w3.org/Graphics/SVG/1.1/DTD/svg11.dtd" >
<svg xmlns="http://www.w3.org/2000/svg" xmlns:xlink="http://www.w3.org/1999/xlink" version="1.1">
<metadata></metadata>
<defs>
<font id="webfontregular" horiz-adv-x="1120" vert-adv-y="2048" >
<font-face units-per-em="2048" ascent="1599" descent="-449" />
<missing-glyph horiz-adv-x="512" />
<glyph horiz-adv-x="0" vert-adv-y="0" />
<glyph horiz-adv-x="682" />
<glyph unicode=" " horiz-adv-x="512" vert-adv-y="1433" d="M0 0z" />
<glyph unicode="!" horiz-adv-x="531" vert-adv-y="1433" d="M191 60q0 31 22 53q21 22 54 22q30 0 51 -22q22 -22 22 -52q0 -31 -22 -53t-53 -22t-52 22q-22 22 -22 52zM221 244v1121h89v-1121h-89z" />
<glyph unicode="#" horiz-adv-x="1229" vert-adv-y="1433" d="M92 451v82h252l40 327h-241v82h251l53 429l87 -13l-51 -416h329l53 429l88 -13l-52 -416h235v-82h-243l-40 -327h233v-82h-244l-57 -456l-87 12l55 444h-331l-57 -456l-87 12l55 444h-241zM433 533h329l40 327h-329z" />
<glyph unicode="$" vert-adv-y="1433" d="M149 275l75 35q102 -243 323 -244v626q-17 9 -33 17q-110 54 -156 87q-74 55 -106 118q-25 53 -25 129q0 196 171 291q64 36 149 43v190h79v-193q86 -14 150 -55q84 -56 127 -134l-66 -54q-86 141 -211 160v-541q160 -78 215 -118q129 -95 129 -251t-114 -270 q-96 -95 -230 -120v-209h-79v202q-155 5 -262 91q-88 74 -136 200zM317 1039q0 -115 108 -184q41 -27 122 -67v506q-61 -4 -103 -29q-61 -38 -96 -103q-31 -59 -31 -123zM626 75q38 9 67 23q84 42 135 116q52 75 52 165q0 129 -133 211q-48 29 -121 64v-579z" />
<glyph unicode="%" horiz-adv-x="1238" vert-adv-y="1433" d="M68 1111q0 108 78 188q76 78 202 78q131 0 211 -99q59 -75 59 -169q0 -111 -78 -190q-77 -78 -197 -78q-137 0 -216 99q-59 75 -59 171zM150 1110q0 -80 57 -137q55 -57 136 -57q80 0 137 57q56 56 56 136q0 82 -56 137q-58 57 -140 57q-78 0 -133 -57q-57 -57 -57 -136z M184 2l808 1393l60 -31l-811 -1394zM620 258q0 107 78 188q77 78 202 78q131 0 210 -99q60 -75 60 -169q0 -111 -78 -190q-77 -78 -197 -78q-137 0 -216 99q-59 75 -59 171zM701 256q0 -80 57 -137q56 -57 136 -57q81 0 138 57q56 56 56 136q0 82 -56 137q-59 57 -140 57 q-78 0 -134 -57q-57 -57 -57 -136z" />
<glyph unicode="&#x26;" horiz-adv-x="1288" vert-adv-y="1433" d="M130 327q0 144 101 261q94 110 306 234q-26 39 -65 105q-39 65 -55 103q-17 40 -17 94q0 115 82 192q79 74 185 74q117 0 189 -88q59 -73 59 -166q0 -128 -122 -238q-38 -34 -131 -100l334 -450q81 79 160 182l80 -36q-106 -137 -189 -218l207 -279h-113l-162 217 q-86 -71 -135 -105q-198 -137 -362 -137q-91 0 -178 52q-174 102 -174 303zM220 334q0 -132 93 -213q77 -67 173 -67q174 0 442 233l-342 467q-25 -18 -128 -84q-117 -74 -181 -160q-57 -77 -57 -176zM488 1118q0 -66 62 -157q41 -59 61 -93q49 36 90 68q69 53 94 93 q31 49 31 110q0 75 -51 120q-52 46 -116 46q-77 0 -127 -63q-44 -55 -44 -124z" />
<glyph unicode="(" horiz-adv-x="552" vert-adv-y="1433" d="M178 583q0 377 83 738q27 117 61 201l67 -48q-126 -440 -126 -891t126 -892l-67 -47q-39 95 -71 248q-73 343 -73 691z" />
<glyph unicode=")" horiz-adv-x="552" vert-adv-y="1433" d="M164 -309q126 443 126 892t-126 891l67 48q39 -97 71 -248q73 -343 73 -691q0 -377 -83 -738q-27 -116 -61 -201z" />
<glyph unicode="*" vert-adv-y="1433" d="M238 1228l27 84l258 -91l-7 273h89l-7 -273l257 91l28 -84l-262 -78l166 -217l-71 -52l-156 225l-155 -225l-71 52l166 217z" />
<glyph unicode="+" vert-adv-y="1433" d="M64 655v82h455v448h82v-448h454v-82h-454v-447h-82v447h-455z" />
<glyph unicode="," horiz-adv-x="415" vert-adv-y="1433" d="M77 -281l123 415l83 -25l-152 -410z" />
<glyph unicode="-" horiz-adv-x="344" vert-adv-y="1433" d="M0 382v82h344v-82h-344z" />
<glyph unicode="." horiz-adv-x="416" vert-adv-y="1433" d="M133 61q0 31 22 53t54 22q30 0 52 -22t22 -53t-22 -53t-53 -22t-53 22t-22 53z" />
<glyph unicode="/" horiz-adv-x="1113" vert-adv-y="1433" d="M14 -323l1038 1845l64 -33l-1036 -1845z" />
<glyph unicode="0" vert-adv-y="1433" d="M64 676q0 289 146 498q143 207 360 207q137 0 259 -110q120 -110 181 -290q45 -136 45 -293q0 -293 -146 -502q-67 -98 -173 -157q-86 -48 -177 -48q-146 0 -276 121q-108 101 -167 267q-52 147 -52 307zM154 671q0 -242 112 -420q52 -83 129 -136q75 -51 168 -51 q161 0 278 175q125 188 125 437q0 245 -105 422q-58 97 -150 156q-70 44 -157 44q-108 0 -206 -90q-92 -85 -144 -231q-50 -140 -50 -306z" />
<glyph unicode="1" vert-adv-y="1433" d="M342 1283l41 82h262v-1365h-89v1283h-214z" />
<glyph unicode="2" vert-adv-y="1433" d="M125 0l523 577q101 111 150 184q84 126 84 232q0 139 -106 227q-95 78 -217 78q-117 0 -207 -72q-82 -65 -101 -175q-4 -25 -6 -72h-92q7 144 57 220q53 81 151 131q99 51 204 51q174 0 298 -124q109 -109 109 -269q0 -116 -66 -225q-57 -94 -231 -282l-358 -399h648v-82 h-840z" />
<glyph unicode="3" vert-adv-y="1433" d="M155 336h86q11 -94 45 -146q39 -58 116 -95q66 -31 131 -31q127 0 223 97q88 88 88 217q0 114 -72 195q-78 86 -235 95v81q103 8 167 51q121 82 121 228q0 131 -97 213q-67 57 -169 57q-92 0 -162 -48q-72 -49 -94 -142q-6 -23 -11 -68h-85q13 113 51 182q43 77 124 118 q79 41 172 41q163 0 265 -110q96 -104 96 -244q0 -211 -205 -314q76 -31 124 -81q100 -103 100 -254q0 -183 -131 -296q-118 -101 -271 -101q-138 0 -246 82q-123 94 -131 273z" />
<glyph unicode="4" vert-adv-y="1433" d="M23 259l821 1152v-1070h192v-82h-192v-259h-87v259h-734zM185 341h572v803z" />
<glyph unicode="5" vert-adv-y="1433" d="M61 207l79 32q42 -59 94 -97q107 -78 235 -78q179 0 296 128q102 111 102 266q0 180 -133 293q-111 95 -265 95q-100 0 -206 -60l178 579h519v-82h-456l-114 -368q53 14 101 14q198 0 331 -134q135 -135 135 -335q0 -227 -170 -368q-135 -111 -319 -111q-164 0 -292 98 q-66 51 -115 128z" />
<glyph unicode="6" vert-adv-y="1433" d="M74 463q0 155 87 279l453 640l70 -52l-301 -429q98 37 183 37q199 0 334 -139q142 -145 142 -339q0 -121 -62 -232q-67 -120 -180 -184q-109 -63 -242 -63q-218 0 -359 156q-125 138 -125 326zM164 460q0 -164 116 -280q115 -116 280 -116q163 0 277 116q116 117 116 279 q0 166 -116 280q-117 116 -283 116q-159 0 -274 -116q-116 -116 -116 -279z" />
<glyph unicode="7" vert-adv-y="1433" d="M72 37l883 1246h-829v82h990l-977 -1380z" />
<glyph unicode="8" vert-adv-y="1433" d="M165 362q0 156 98 259q43 47 124 88q-189 109 -189 314q0 154 112 262q100 96 253 96q166 0 272 -113q95 -102 95 -242q0 -120 -83 -222q-47 -58 -116 -95q225 -106 225 -340q0 -185 -138 -296q-114 -92 -259 -92q-111 0 -208 57q-186 108 -186 324zM254 367 q0 -124 89 -214q89 -89 217 -89q127 0 216 89t89 213q0 128 -89 214q-92 89 -221 89q-123 0 -212 -89t-89 -213zM288 1023q0 -113 81 -195q80 -81 194 -81q115 0 195 81q81 81 81 194q0 117 -81 196q-82 80 -199 80q-110 0 -190 -81q-81 -81 -81 -194z" />
<glyph unicode="9" vert-adv-y="1433" d="M78 905q0 121 63 231q66 119 179 183q109 62 242 62q218 0 359 -155q125 -137 125 -325q0 -153 -87 -276l-453 -642l-70 53l301 429q-100 -35 -182 -35q-199 0 -335 138q-142 145 -142 337zM167 905q0 -161 116 -277q114 -116 279 -116q164 0 280 116q115 115 115 276 q0 166 -115 279q-119 115 -286 115q-159 0 -273 -115q-116 -117 -116 -278z" />
<glyph unicode=":" horiz-adv-x="416" vert-adv-y="1433" d="M133 61q0 31 22 53t54 22q30 0 52 -22t22 -53t-22 -53t-53 -22t-53 22t-22 53zM133 780q0 31 22 53t54 22q30 0 52 -22t22 -53t-22 -53t-53 -22t-53 22t-22 53z" />
<glyph unicode=";" horiz-adv-x="415" vert-adv-y="1433" d="M77 -281l123 415l83 -25l-152 -410zM140 780q0 31 22 52q22 22 53 22q30 0 52 -22t22 -52q0 -31 -22 -53t-53 -22t-52 22q-22 22 -22 53z" />
<glyph unicode="&#x3c;" horiz-adv-x="1024" vert-adv-y="1433" d="M68 645v81l887 397v-90l-790 -347l790 -348v-89z" />
<glyph unicode="=" vert-adv-y="1433" d="M64 546v82h991v-82h-991zM64 765v82h991v-82h-991z" />
<glyph unicode="&#x3e;" horiz-adv-x="1024" vert-adv-y="1433" d="M69 248v90l790 348l-790 347v90l887 -397v-81z" />
<glyph unicode="?" horiz-adv-x="952" vert-adv-y="1433" d="M150 1075q0 138 107 227q90 75 218 75q165 0 258 -120q68 -89 68 -209q0 -126 -71 -216q-52 -67 -160 -101q-13 -3 -125 -33q-166 -44 -166 -194q0 -90 65 -148q55 -50 131 -50q57 0 105 29.5t69 78.5q18 39 24 112h83v-22q0 -65 -23 -118q-38 -87 -119 -127 q-63 -32 -139 -32q-134 0 -213 91q-71 81 -71 189q0 131 100 209q54 40 158 68q112 30 139 43q126 58 126 215q0 105 -63 174q-73 79 -180 79q-108 0 -180 -81q-56 -64 -56 -156q0 -40 12 -97h-84q-13 70 -13 114zM397 61q0 31 22 53t54 22q30 0 52 -22t22 -53t-22 -53 t-53 -22t-53 22t-22 53z" />
<glyph unicode="@" horiz-adv-x="1573" vert-adv-y="1433" d="M106 684q0 196 95 357q89 152 246 244q169 99 372 99q199 0 359 -95q134 -80 209 -209q80 -135 80 -295q0 -154 -72 -284q-97 -176 -252 -176q-75 0 -115 58q-21 31 -21 62q0 8 1 19q-61 -70 -104 -97q-73 -46 -164 -46q-141 0 -232 94q-91 95 -91 243q0 178 116 293 q101 99 247 99q113 0 192 -62q37 -28 85 -98l17 143h82l-55 -458l-17 -109q0 -32 25 -52q21 -16 52 -16q73 0 137 78q46 56 73 145q22 75 22 154q0 241 -169 390q-86 77 -208 116q-97 30 -199 30q-269 0 -453 -184q-181 -181 -181 -443q0 -251 162 -430q181 -201 497 -201 q203 0 379 77q25 11 74 35l29 -69q-231 -115 -478 -115q-231 0 -397 96q-153 88 -245 242q-98 166 -98 365zM501 664q0 -115 68 -189q70 -77 177 -77q120 0 206 97q87 97 87 231q0 109 -71 177q-74 70 -182 70q-117 0 -200 -86q-85 -88 -85 -223z" />
<glyph unicode="A" horiz-adv-x="1197" vert-adv-y="1433" d="M27 0l574 1406l568 -1406h-99l-181 449h-582l-181 -449h-99zM341 531h515l-256 646z" />
<glyph unicode="B" horiz-adv-x="1091" vert-adv-y="1433" d="M184 0v1365h296q189 0 285 -104q92 -99 92 -254q0 -125 -65 -204q-31 -38 -94 -78q102 -28 160 -75q124 -101 124 -272q0 -176 -138 -288q-111 -90 -287 -90h-373zM273 82h229q153 0 216 29q96 43 143 134q31 61 31 134q0 113 -72 192q-63 68 -190 86q-58 8 -144 8h-213 v-583zM273 747h173q120 0 168 20q152 65 152 242q0 146 -91 217q-49 37 -107 48q-54 9 -122 9h-173v-536z" />
<glyph unicode="C" horiz-adv-x="1386" vert-adv-y="1433" d="M109 679q0 176 87 334q97 177 274 278q164 93 347 93q171 0 324 -81q59 -31 135 -96v-122q-79 89 -159 133q-147 83 -302 83t-298 -83q-159 -93 -244 -254q-72 -136 -72 -290q0 -276 213 -457q105 -88 233 -130q85 -27 168 -27q175 0 343 104q53 33 118 103v-120 q-217 -170 -454 -170q-163 0 -315 76q-206 104 -314 298q-84 153 -84 328z" />
<glyph unicode="D" horiz-adv-x="1264" vert-adv-y="1433" d="M184 0v1365h270q309 0 500 -189q201 -199 201 -493t-201 -493q-191 -190 -500 -190h-270zM273 82h180q260 0 427 157q184 174 184 444q0 269 -184 443q-167 157 -427 157h-180v-1201z" />
<glyph unicode="E" horiz-adv-x="948" vert-adv-y="1433" d="M184 0v1365h654v-82h-565v-494h551v-82h-551v-625h565v-82h-654z" />
<glyph unicode="F" horiz-adv-x="831" vert-adv-y="1433" d="M184 0v1365h552v-82h-463v-494h449v-82h-449v-707h-89z" />
<glyph unicode="G" horiz-adv-x="1580" vert-adv-y="1433" d="M108 677q0 194 103 364q99 163 265 255q161 88 344 88q242 0 428 -147q74 -59 164 -173l-70 -56q-76 100 -131 148q-83 72 -194 110q-99 35 -200 35q-151 0 -288 -74q-159 -87 -249 -247q-82 -145 -82 -306q0 -144 66 -273q81 -159 236 -252q147 -89 313 -89 q202 0 375 129q152 113 179 294q5 33 8 90h-480v82h575q0 -93 -7 -150q-27 -230 -208 -374q-87 -69 -197 -109q-121 -45 -244 -45q-190 0 -359 100q-166 98 -258 261q-89 158 -89 339z" />
<glyph unicode="H" horiz-adv-x="1374" vert-adv-y="1433" d="M184 0v1365h89v-579h827v579h89v-1365h-89v704h-827v-704h-89z" />
<glyph unicode="I" horiz-adv-x="457" vert-adv-y="1433" d="M184 0v1365h89v-1365h-89z" />
<glyph unicode="J" horiz-adv-x="543" vert-adv-y="1433" d="M-110 -138l64 49q61 -114 171 -114q144 0 144 206v1362h89v-1362q0 -87 -14 -132q-27 -84 -97 -125q-56 -32 -126 -32q-156 0 -231 148z" />
<glyph unicode="K" horiz-adv-x="1104" vert-adv-y="1433" d="M184 0v1365h89v-635l641 635h122l-669 -658l710 -707h-131l-639 649l-34 -33v-616h-89z" />
<glyph unicode="L" horiz-adv-x="646" vert-adv-y="1433" d="M184 0v1365h89v-1283h345v-82h-434z" />
<glyph unicode="M" horiz-adv-x="1837" vert-adv-y="1433" d="M171 0l154 1413l590 -1264l595 1264l157 -1413h-91l-123 1098l-538 -1147l-536 1147l-119 -1098h-89z" />
<glyph unicode="N" horiz-adv-x="1603" vert-adv-y="1433" d="M184 0v1380l1145 -1200v1185h89v-1400l-1145 1200v-1165h-89z" />
<glyph unicode="O" horiz-adv-x="1634" vert-adv-y="1433" d="M109 686q0 299 233 512q204 186 486 186q184 0 351 -102q157 -96 248 -247q98 -163 98 -354q0 -190 -98 -355q-92 -153 -248 -247q-170 -102 -362 -102q-191 0 -362 102q-157 94 -248 247q-98 166 -98 360zM200 681q0 -165 81 -306q79 -140 220 -225q150 -90 316 -90 t316 90q141 86 221 225q80 142 80 310q0 264 -200 449q-179 167 -427 167q-159 0 -306 -90q-141 -87 -220 -225q-81 -140 -81 -305z" />
<glyph unicode="P" horiz-adv-x="912" vert-adv-y="1433" d="M184 0v1365h263q143 0 226 -47q95 -55 141 -160q30 -70 30 -152q0 -165 -105 -263q-101 -95 -290 -95h-176v-648h-89zM273 730h179q141 0 224 81q77 75 77 195q0 127 -74 201q-77 76 -241 76h-165v-553z" />
<glyph unicode="Q" horiz-adv-x="1634" vert-adv-y="1433" d="M109 678q0 182 91 343q89 158 242 254q173 109 376 109q198 0 370 -105q170 -105 260 -279q77 -150 77 -319q0 -189 -100 -355q-33 -56 -100 -135l180 -191h-118l-123 138q-213 -161 -452 -161q-191 0 -359 100q-156 93 -248 249q-96 164 -96 352zM200 677 q0 -271 198 -450q184 -167 419 -167q198 0 386 142l-340 356h122l277 -303q89 104 124 185q48 109 48 233q0 262 -180 444q-182 184 -434 184q-176 0 -329 -96q-143 -91 -221 -240q-70 -135 -70 -288z" />
<glyph unicode="R" horiz-adv-x="956" vert-adv-y="1433" d="M184 0v1365h194q136 0 210 -27q112 -42 168 -139q48 -84 48 -196q0 -223 -173 -314q-70 -37 -217 -44l447 -645h-108l-440 645h-40v-645h-89zM273 726h131q141 0 218 64q92 76 92 215q0 115 -63 190q-75 88 -266 88h-112v-557z" />
<glyph unicode="S" horiz-adv-x="1049" vert-adv-y="1433" d="M109 271l76 36q41 -88 76 -131q45 -57 120 -89q62 -27 132 -27q137 0 236 94t99 224q0 133 -134 211q-46 27 -255 129q-159 79 -211 144q-60 74 -60 181q0 160 113 257q98 84 237 84q135 0 241 -85q54 -43 92 -109l-66 -55q-41 64 -76 95q-80 71 -193 71q-123 0 -194 -87 q-63 -77 -63 -173q0 -92 72 -157q45 -40 171 -101q202 -96 272 -142q145 -95 145 -261q0 -184 -147 -304q-121 -99 -280 -99q-196 0 -318 145q-47 55 -85 149z" />
<glyph unicode="T" horiz-adv-x="849" vert-adv-y="1433" d="M27 1283v82h795v-82h-355v-1283h-89v1283h-351z" />
<glyph unicode="U" horiz-adv-x="1297" vert-adv-y="1433" d="M184 487v878h89v-854q0 -149 15 -209q28 -116 144 -184q101 -58 216 -58q135 0 247 78q99 70 119 193q9 54 9 180v854h89v-878q0 -161 -22 -227q-46 -140 -190 -219q-115 -64 -252 -64q-164 0 -292 88q-129 89 -160 230q-12 57 -12 192z" />
<glyph unicode="V" horiz-adv-x="1041" vert-adv-y="1433" d="M27 1365h99l399 -1152l393 1152h95l-488 -1421z" />
<glyph unicode="W" horiz-adv-x="2011" vert-adv-y="1433" d="M27 1365h100l372 -1155l495 1229l462 -1229l426 1155h101l-527 -1417l-463 1239l-507 -1239z" />
<glyph unicode="X" horiz-adv-x="947" vert-adv-y="1433" d="M48 0l374 697l-359 668h100l309 -574l307 574h102l-357 -668l376 -697h-101l-327 605l-324 -605h-100z" />
<glyph unicode="Y" horiz-adv-x="1052" vert-adv-y="1433" d="M27 1365h104l389 -685l400 685h105l-462 -782v-583h-89v583z" />
<glyph unicode="Z" horiz-adv-x="1137" vert-adv-y="1433" d="M75 0l833 1283h-753v82h906l-834 -1283h810v-82h-962z" />
<glyph unicode="`" horiz-adv-x="1024" vert-adv-y="1433" d="M295 1191l86 54l187 -255l-60 -34z" />
<glyph unicode="a" horiz-adv-x="1054" vert-adv-y="1433" d="M91 420q0 222 142 341q112 93 265 93q203 0 328 -163v145h82v-836h-82v150q-44 -66 -98 -103q-103 -69 -228 -69q-191 0 -311 145q-98 119 -98 297zM176 421q0 -165 99 -268q95 -99 231 -99q155 0 251 125q74 96 74 250q0 170 -104 260q-101 89 -229 89q-136 0 -236 -109 q-86 -94 -86 -248z" />
<glyph unicode="b" horiz-adv-x="1054" vert-adv-y="1433" d="M146 0v1494h82v-803q124 163 328 163q181 0 297 -123q110 -117 110 -311q0 -206 -129 -330q-116 -112 -279 -112q-147 0 -256 89q-35 29 -71 83v-150h-82zM222 426q0 -178 103 -279q94 -93 223 -93q160 0 257 128q74 98 74 242q0 173 -114 272q-94 82 -219 82 q-139 0 -247 -115q-77 -82 -77 -237z" />
<glyph unicode="c" horiz-adv-x="902" vert-adv-y="1433" d="M91 410q0 190 127 321q119 123 305 123q155 0 291 -107v-107q-68 68 -122 96q-82 42 -170 42q-156 0 -256 -117q-90 -105 -90 -248q0 -148 98 -252q102 -107 248 -107q167 0 303 151v-110q-142 -117 -304 -117q-133 0 -240 71q-106 70 -156 188q-34 82 -34 173z" />
<glyph unicode="d" horiz-adv-x="1054" vert-adv-y="1433" d="M91 420q0 222 142 341q112 93 265 93q203 0 328 -163v803h82v-1494h-82v150q-44 -66 -98 -103q-103 -69 -228 -69q-191 0 -311 145q-98 119 -98 297zM176 421q0 -165 99 -268q95 -99 231 -99q155 0 251 125q74 96 74 250q0 170 -104 260q-101 89 -229 89 q-136 0 -236 -109q-86 -94 -86 -248z" />
<glyph unicode="e" horiz-adv-x="990" vert-adv-y="1433" d="M91 413q0 188 117 317q112 124 292 124q145 0 250 -90q144 -123 148 -357h-718q5 -116 46 -189q42 -74 118 -119q77 -45 162 -45q123 0 211 80q39 35 85 112l70 -41q-128 -227 -371 -227q-197 0 -313 146q-97 120 -97 289zM186 485h619q-18 94 -61 157t-109 99 q-67 37 -138 37q-107 0 -198 -78q-93 -80 -113 -215z" />
<glyph unicode="f" horiz-adv-x="436" vert-adv-y="1433" d="M54 761v75h93v397q0 138 42 197q62 87 178 87q33 0 72 -12v-75q-43 9 -65 9q-82 0 -115 -58q-30 -53 -30 -165v-380h210v-75h-210v-761h-82v761h-93z" />
<glyph unicode="g" horiz-adv-x="1067" vert-adv-y="1433" d="M91 -120h85q10 -92 49 -149q43 -63 114 -96q76 -36 163 -36q174 0 263 125q74 106 74 293v126q-140 -164 -331 -164q-182 0 -302 141q-106 124 -106 297q0 189 124 316q119 121 297 121q136 0 237 -81q34 -27 81 -83v146h82v-819q0 -158 -32 -240q-54 -138 -183 -206 q-91 -49 -206 -49q-170 0 -284 96q-108 92 -125 262zM185 413q0 -147 82 -245q95 -113 242 -113q86 0 163 45q172 98 172 325q0 162 -102 256q-103 96 -236 96q-90 0 -168 -54q-153 -105 -153 -310z" />
<glyph unicode="h" horiz-adv-x="902" vert-adv-y="1433" d="M146 0v1494h82v-788q39 60 75 88q76 60 180 60q100 0 176 -56q70 -53 89 -152q8 -47 8 -120v-526h-82v526q0 120 -30 171q-23 38 -70 60q-47 21 -101 21q-136 0 -201 -114q-29 -52 -37 -109q-7 -53 -7 -120v-435h-82z" />
<glyph unicode="i" horiz-adv-x="374" vert-adv-y="1433" d="M113 1114q0 31 22 52q22 22 53 22q30 0 52 -22q22 -21 22 -52q0 -32 -22 -53q-22 -22 -52 -22q-31 0 -53 22t-22 53zM146 0v836h82v-836h-82z" />
<glyph unicode="j" horiz-adv-x="374" vert-adv-y="1433" d="M114 1114q0 31 22 52q22 22 53 22q30 0 52 -22q22 -21 22 -52q0 -32 -22 -53q-22 -22 -52 -22q-31 0 -53 22t-22 53zM147 -489v1325h82v-1325h-82z" />
<glyph unicode="k" horiz-adv-x="812" vert-adv-y="1433" d="M146 0v1494h82v-1012l341 354h109l-352 -362l469 -474h-113l-411 414l-43 -43v-371h-82z" />
<glyph unicode="l" horiz-adv-x="374" vert-adv-y="1433" d="M146 0v1494h82v-1494h-82z" />
<glyph unicode="m" horiz-adv-x="1327" vert-adv-y="1433" d="M146 0v836h82v-105q75 123 216 123q158 0 233 -152q33 65 72 96q72 56 173 56q136 0 207 -91q39 -50 47 -114q5 -44 5 -102v-547h-82v558q0 77 -11 110q-21 60 -77 88q-41 21 -92 21q-108 0 -165 -81q-47 -65 -47 -192v-504h-82v538q0 97 -30 151q-49 89 -155 89 q-73 0 -131 -50q-81 -70 -81 -245v-483h-82z" />
<glyph unicode="n" horiz-adv-x="901" vert-adv-y="1433" d="M146 0v836h82v-130q39 60 75 88q75 60 179 60q101 0 176 -56q70 -53 88 -152q9 -47 9 -119v-527h-82v527q0 119 -30 170q-23 39 -69 60q-47 21 -101 21q-136 0 -201 -114q-30 -52 -37 -109q-7 -52 -7 -120v-435h-82z" />
<glyph unicode="o" horiz-adv-x="1058" vert-adv-y="1433" d="M91 420q0 184 134 312q128 122 312 122q179 0 310 -135q119 -122 119 -303q0 -208 -153 -335q-124 -103 -283 -103q-123 0 -229 64q-107 64 -162 172q-48 93 -48 206zM176 416q0 -155 106 -261q100 -101 244 -101q97 0 183 51q172 103 172 314q0 156 -107 258 q-106 101 -254 101q-158 0 -262 -127q-82 -101 -82 -235z" />
<glyph unicode="p" horiz-adv-x="1054" vert-adv-y="1433" d="M146 -489v1325h82v-150q44 65 98 100q103 68 228 68q191 0 311 -144q98 -119 98 -296q0 -223 -142 -342q-112 -94 -264 -94q-204 0 -329 167v-634h-82zM223 409q0 -174 104 -266q101 -89 225 -89q141 0 240 109q86 95 86 254q0 160 -99 263q-94 98 -235 98 q-149 0 -246 -124q-75 -96 -75 -245z" />
<glyph unicode="q" horiz-adv-x="1054" vert-adv-y="1433" d="M91 414q0 206 129 329q116 111 280 111q146 0 254 -87q36 -28 72 -81v150h82v-1325h-82v634q-125 -167 -329 -167q-179 0 -296 124q-110 117 -110 312zM175 414q0 -178 114 -277q94 -83 213 -83q146 0 252 115q77 84 77 243q0 172 -103 274q-93 92 -229 92 q-152 0 -249 -128q-75 -97 -75 -236z" />
<glyph unicode="r" horiz-adv-x="532" vert-adv-y="1433" d="M146 0v836h82v-109q65 127 184 127q41 0 90 -20l-44 -72q-33 18 -59 18q-73 0 -126 -69q-33 -43 -41 -118q-4 -37 -4 -144v-449h-82z" />
<glyph unicode="s" horiz-adv-x="700" vert-adv-y="1433" d="M78 199l79 25q60 -170 206 -170q92 0 145 66q43 52 43 119q0 66 -43 110q-27 27 -117 60q-120 44 -179 89q-66 51 -66 141q0 102 77 163q66 52 147 52q144 0 218 -136l-70 -35q-51 95 -143 95q-68 0 -113 -51q-31 -36 -31 -83q0 -55 46 -90q35 -27 117 -58 q118 -45 160 -76q82 -62 82 -177q0 -130 -91 -204q-75 -61 -180 -61q-143 0 -229 105q-37 44 -58 116z" />
<glyph unicode="t" horiz-adv-x="398" vert-adv-y="1433" d="M61 761v75h93v299h82v-299h146v-75h-146v-761h-82v761h-93z" />
<glyph unicode="u" horiz-adv-x="893" vert-adv-y="1433" d="M146 309v527h82v-498q0 -131 28 -184q24 -48 81 -75q51 -25 110 -25q85 0 147 49q54 42 66 129q5 37 5 106v498h82v-527q0 -108 -20 -160q-34 -87 -124 -134q-71 -37 -156 -37q-154 0 -241 103q-44 53 -53 120q-7 46 -7 108z" />
<glyph unicode="v" horiz-adv-x="800" vert-adv-y="1433" d="M16 836h96l289 -675l289 675h93l-382 -886z" />
<glyph unicode="w" horiz-adv-x="1376" vert-adv-y="1433" d="M16 836h95l283 -672l290 723l288 -723l292 672h95l-387 -888l-288 726l-290 -726z" />
<glyph unicode="x" horiz-adv-x="820" vert-adv-y="1433" d="M16 0l341 438l-311 398h108l257 -334l253 334h108l-304 -398l336 -438h-106l-287 375l-286 -375h-109z" />
<glyph unicode="y" horiz-adv-x="877" vert-adv-y="1433" d="M16 836h96l342 -742l311 742h95l-560 -1325h-93l204 475z" />
<glyph unicode="z" horiz-adv-x="927" vert-adv-y="1433" d="M37 0l682 761h-573v75h744l-676 -761h672v-75h-849z" />
<glyph unicode="|" horiz-adv-x="1024" vert-adv-y="1433" d="M468 -341v1706h89v-1706h-89z" />
<glyph unicode="&#xa0;" horiz-adv-x="512" vert-adv-y="1433" />
<glyph unicode="&#xa3;" vert-adv-y="1433" d="M139 45q47 53 113 85q71 34 130 32q115 109 115 217q0 18 -5 54h-224v82h202q-60 118 -146 251q-41 64 -66 118q-32 68 -32 149q0 163 127 266q100 81 236 81q127 0 218 -75q131 -109 131 -286h-88q-4 92 -34 147q-34 60 -96 96q-63 35 -139 35q-121 0 -195 -88 q-70 -82 -70 -181q0 -71 56 -170q11 -21 80 -133q86 -142 112 -210h246v-82h-230q5 -34 5 -58q0 -123 -103 -232q67 -22 132 -44q105 -36 148 -36q111 0 193 142l75 -45q-112 -186 -256 -186q-69 0 -225 56q-122 44 -167 44q-65 0 -127 -41q-21 -14 -67 -54z" />
<glyph unicode="&#xa8;" horiz-adv-x="1024" vert-adv-y="1433" d="M268 1084q0 31 22 52q22 22 54 22q30 0 51 -22q22 -22 22 -52q0 -31 -22 -53q-21 -22 -53 -22q-31 0 -52 22q-22 22 -22 53zM608 1084q0 31 22 52q22 22 53 22q30 0 52 -22t22 -52q0 -31 -22 -53t-53 -22t-52 22q-22 22 -22 53z" />
<glyph unicode="&#xa9;" horiz-adv-x="1516" vert-adv-y="1433" d="M55 689q0 303 233 516q198 181 482 181q179 0 339 -94q164 -97 258 -258q94 -162 94 -351q0 -188 -94 -351q-94 -164 -258 -258q-163 -94 -351 -94t-352 94q-163 95 -257 258q-94 164 -94 357zM153 683q0 -162 81 -302q81 -141 221 -222q141 -81 303 -81t303 81 q140 81 221 222t81 307q0 261 -201 444q-170 156 -413 156q-156 0 -294 -81q-140 -83 -221 -222t-81 -302zM383 674q0 176 132 296q117 106 271 106q144 0 266 -106v-109q-58 70 -108 97q-78 44 -159 44q-143 0 -243 -116q-81 -94 -81 -215q0 -146 113 -242q98 -83 211 -83 q148 0 267 136v-107q-127 -101 -264 -101q-174 0 -298 132q-107 114 -107 268z" />
<glyph unicode="&#xab;" horiz-adv-x="711" vert-adv-y="1433" d="M68 423l264 306l52 -49l-218 -257l218 -256l-52 -49zM285 423l265 306l52 -49l-219 -257l219 -256l-52 -49z" />
<glyph unicode="&#xad;" horiz-adv-x="344" vert-adv-y="1433" d="M0 382v82h344v-82h-344z" />
<glyph unicode="&#xae;" horiz-adv-x="1515" vert-adv-y="1433" d="M55 688q0 304 233 516q198 181 482 181q179 0 339 -94q164 -97 258 -257q94 -162 94 -351t-94 -352t-258 -257q-163 -94 -351 -94t-351 94q-164 95 -258 257q-94 164 -94 357zM153 683q0 -163 81 -303t222 -221q140 -81 302 -81t302 81q141 81 222 221q81 141 81 307 q0 261 -201 444q-170 156 -413 156q-156 0 -293 -81q-142 -83 -222 -221q-81 -140 -81 -302zM599 287v778h121q109 0 167 -40q81 -57 81 -172q0 -98 -63 -156q-46 -43 -141 -53l247 -357h-93l-242 355v-355h-77zM675 714h59q72 0 110 32q46 37 46 107q0 140 -167 140h-48 v-279z" />
<glyph unicode="&#xb4;" horiz-adv-x="1024" vert-adv-y="1433" d="M456 990l187 255l86 -54l-213 -235z" />
<glyph unicode="&#xb7;" horiz-adv-x="422" vert-adv-y="1433" d="M137 423q0 31 22 53t54 22q30 0 52 -22t22 -53t-22 -53t-53 -22t-53 22q-22 23 -22 53z" />
<glyph unicode="&#xb8;" horiz-adv-x="1024" vert-adv-y="1433" d="M378 -357l168 261l91 -43l-196 -252z" />
<glyph unicode="&#xbb;" horiz-adv-x="711" vert-adv-y="1433" d="M109 167l219 256l-219 257l52 49l264 -306l-264 -305zM326 167l219 256l-219 257l52 49l265 -306l-265 -305z" />
<glyph unicode="&#xc0;" horiz-adv-x="1197" vert-adv-y="1433" d="M27 0l574 1406l568 -1406h-99l-181 449h-582l-181 -449h-99zM341 531h515l-256 646zM342 1671l94 65l249 -222l-71 -53z" />
<glyph unicode="&#xc2;" horiz-adv-x="1197" vert-adv-y="1433" d="M27 0l574 1406l568 -1406h-99l-181 449h-582l-181 -449h-99zM341 531h515l-256 646zM343 1520l255 215l255 -215l-73 -57l-182 153l-182 -153z" />
<glyph unicode="&#xc6;" horiz-adv-x="1743" vert-adv-y="1433" d="M27 0l551 1365h594l32 -82h-562l202 -495h548l34 -82h-548l253 -624h565l33 -82h-661l-182 448h-584l-177 -448h-98zM337 530h515l-260 642z" />
<glyph unicode="&#xc7;" horiz-adv-x="1386" vert-adv-y="1433" d="M109 679q0 176 87 334q97 177 274 278q164 93 347 93q171 0 324 -81q59 -31 135 -96v-122q-79 89 -159 133q-147 83 -302 83t-298 -83q-159 -93 -244 -254q-72 -136 -72 -290q0 -276 213 -457q105 -88 233 -130q85 -27 168 -27q175 0 343 104q53 33 118 103v-120 q-217 -170 -454 -170q-163 0 -315 76q-206 104 -314 298q-84 153 -84 328zM579 -369l180 273l103 -51l-210 -259z" />
<glyph unicode="&#xc8;" horiz-adv-x="948" vert-adv-y="1433" d="M184 0v1365h654v-82h-565v-494h551v-82h-551v-625h565v-82h-654zM306 1671l94 65l249 -222l-71 -53z" />
<glyph unicode="&#xc9;" horiz-adv-x="948" vert-adv-y="1433" d="M184 0v1365h654v-82h-565v-494h551v-82h-551v-625h565v-82h-654zM407 1514l249 222l94 -65l-271 -210z" />
<glyph unicode="&#xca;" horiz-adv-x="948" vert-adv-y="1433" d="M184 0v1365h654v-82h-565v-494h551v-82h-551v-625h565v-82h-654zM259 1520l255 215l255 -215l-73 -57l-182 153l-182 -153z" />
<glyph unicode="&#xcb;" horiz-adv-x="948" vert-adv-y="1433" d="M184 0v1365h654v-82h-565v-494h551v-82h-551v-625h565v-82h-654zM245 1590q0 33 23 55q23 23 57 23q31 0 54 -23t23 -55q0 -33 -23 -56t-55 -23q-33 0 -56 23t-23 56zM626 1590q0 32 23 55t57 23q31 0 54 -23t23 -55q0 -33 -23 -56t-55 -23q-33 0 -56 23t-23 56z" />
<glyph unicode="&#xce;" horiz-adv-x="457" vert-adv-y="1433" d="M-27 1520l255 215l255 -215l-73 -57l-182 153l-182 -153zM184 0v1365h89v-1365h-89z" />
<glyph unicode="&#xcf;" horiz-adv-x="458" vert-adv-y="1433" d="M21 1590q0 33 23 55q23 23 57 23q31 0 54 -23t23 -55q0 -33 -23 -56t-55 -23q-33 0 -56 23t-23 56zM184 0v1365h89v-1365h-89zM279 1590q0 32 23 55t57 23q31 0 54 -23t23 -55q0 -33 -23 -56t-55 -23q-33 0 -56 23t-23 56z" />
<glyph unicode="&#xd1;" horiz-adv-x="1603" vert-adv-y="1433" d="M184 0v1380l1145 -1200v1185h89v-1400l-1145 1200v-1165h-89zM536 1549q21 46 41 71q41 51 104 51q46 0 126 -35q85 -37 120 -37q48 0 81 78l59 -45q-42 -123 -145 -123q-43 0 -121 33q-94 39 -127 39q-49 0 -79 -77z" />
<glyph unicode="&#xd4;" horiz-adv-x="1634" vert-adv-y="1433" d="M109 686q0 299 233 512q204 186 486 186q184 0 351 -102q157 -96 248 -247q98 -163 98 -354q0 -190 -98 -355q-92 -153 -248 -247q-170 -102 -362 -102q-191 0 -362 102q-157 94 -248 247q-98 166 -98 360zM200 681q0 -165 81 -306q79 -140 220 -225q150 -90 316 -90 t316 90q141 86 221 225q80 142 80 310q0 264 -200 449q-179 167 -427 167q-159 0 -306 -90q-141 -87 -220 -225q-81 -140 -81 -305zM562 1520l255 215l255 -215l-73 -57l-182 153l-182 -153z" />
<glyph unicode="&#xd9;" horiz-adv-x="1297" vert-adv-y="1433" d="M184 487v878h89v-854q0 -149 15 -209q28 -116 144 -184q101 -58 216 -58q135 0 247 78q99 70 119 193q9 54 9 180v854h89v-878q0 -161 -22 -227q-46 -140 -190 -219q-115 -64 -252 -64q-164 0 -292 88q-129 89 -160 230q-12 57 -12 192zM420 1671l94 65l249 -222l-71 -53 z" />
<glyph unicode="&#xdb;" horiz-adv-x="1297" vert-adv-y="1433" d="M184 487v878h89v-854q0 -149 15 -209q28 -116 144 -184q101 -58 216 -58q135 0 247 78q99 70 119 193q9 54 9 180v854h89v-878q0 -161 -22 -227q-46 -140 -190 -219q-115 -64 -252 -64q-164 0 -292 88q-129 89 -160 230q-12 57 -12 192zM393 1520l255 215l255 -215 l-73 -57l-182 153l-182 -153z" />
<glyph unicode="&#xdc;" horiz-adv-x="1297" vert-adv-y="1433" d="M184 487v878h89v-854q0 -149 15 -209q28 -116 144 -184q101 -58 216 -58q135 0 247 78q99 70 119 193q9 54 9 180v854h89v-878q0 -161 -22 -227q-46 -140 -190 -219q-115 -64 -252 -64q-164 0 -292 88q-129 89 -160 230q-12 57 -12 192zM379 1590q0 33 23 55q23 23 57 23 q31 0 54 -23t23 -55q0 -33 -23 -56t-55 -23q-33 0 -56 23t-23 56zM760 1590q0 32 23 55t57 23q31 0 54 -23t23 -55q0 -33 -23 -56t-55 -23q-33 0 -56 23t-23 56z" />
<glyph unicode="&#xe0;" horiz-adv-x="1054" vert-adv-y="1433" d="M91 420q0 222 142 341q112 93 265 93q203 0 328 -163v145h82v-836h-82v150q-44 -66 -98 -103q-103 -69 -228 -69q-191 0 -311 145q-98 119 -98 297zM176 421q0 -165 99 -268q95 -99 231 -99q155 0 251 125q74 96 74 250q0 170 -104 260q-101 89 -229 89q-136 0 -236 -109 q-86 -94 -86 -248zM364 1191l86 54l187 -255l-60 -34z" />
<glyph unicode="&#xe2;" horiz-adv-x="1054" vert-adv-y="1433" d="M91 420q0 222 142 341q112 93 265 93q203 0 328 -163v145h82v-836h-82v150q-44 -66 -98 -103q-103 -69 -228 -69q-191 0 -311 145q-98 119 -98 297zM176 421q0 -165 99 -268q95 -99 231 -99q155 0 251 125q74 96 74 250q0 170 -104 260q-101 89 -229 89q-136 0 -236 -109 q-86 -94 -86 -248zM278 1008l249 233l249 -233l-66 -52l-183 178l-182 -178z" />
<glyph unicode="&#xe6;" horiz-adv-x="1624" vert-adv-y="1433" d="M91 238q0 126 119 205q89 60 249 60q122 0 201 -44q28 -15 62 -43q-1 141 -51 233q-71 129 -239 129q-117 0 -284 -76v82q146 70 291 70q241 0 333 -232q40 79 84 122q51 50 125 80q75 30 150 30q139 0 248 -89q138 -112 153 -359h-719q5 -107 42 -180q40 -79 117 -126 q74 -45 161 -45q122 0 214 80q38 33 88 108l70 -47q-148 -218 -373 -218q-145 0 -255 92q-54 45 -89 116q-22 -71 -72 -116q-105 -92 -274 -92q-172 0 -271 88q-80 73 -80 172zM176 237q0 -90 79 -137q74 -45 189 -45q137 0 209 62q64 55 64 130q0 83 -78 135 q-66 44 -190 44q-135 0 -212 -61q-61 -47 -61 -128zM820 484h619q-15 88 -50 144q-41 67 -111 108q-73 42 -151 42q-117 0 -205 -84q-82 -78 -102 -210z" />
<glyph unicode="&#xe7;" horiz-adv-x="902" vert-adv-y="1433" d="M91 410q0 190 127 321q119 123 305 123q155 0 291 -107v-107q-68 68 -122 96q-82 42 -170 42q-156 0 -256 -117q-90 -105 -90 -248q0 -148 98 -252q102 -107 248 -107q167 0 303 151v-110q-142 -117 -304 -117q-133 0 -240 71q-106 70 -156 188q-34 82 -34 173zM302 -357 l168 261l91 -43l-196 -252z" />
<glyph unicode="&#xe8;" horiz-adv-x="990" vert-adv-y="1433" d="M91 413q0 188 117 317q112 124 292 124q145 0 250 -90q144 -123 148 -357h-718q5 -116 46 -189q42 -74 118 -119q77 -45 162 -45q123 0 211 80q39 35 85 112l70 -41q-128 -227 -371 -227q-197 0 -313 146q-97 120 -97 289zM186 485h619q-18 94 -61 157t-109 99 q-67 37 -138 37q-107 0 -198 -78q-93 -80 -113 -215zM334 1191l86 54l187 -255l-60 -34z" />
<glyph unicode="&#xe9;" horiz-adv-x="990" vert-adv-y="1433" d="M91 413q0 188 117 317q112 124 292 124q145 0 250 -90q144 -123 148 -357h-718q5 -116 46 -189q42 -74 118 -119q77 -45 162 -45q123 0 211 80q39 35 85 112l70 -41q-128 -227 -371 -227q-197 0 -313 146q-97 120 -97 289zM186 485h619q-18 94 -61 157t-109 99 q-67 37 -138 37q-107 0 -198 -78q-93 -80 -113 -215zM421 990l187 255l86 -54l-213 -235z" />
<glyph unicode="&#xea;" horiz-adv-x="990" vert-adv-y="1433" d="M91 413q0 188 117 317q112 124 292 124q145 0 250 -90q144 -123 148 -357h-718q5 -116 46 -189q42 -74 118 -119q77 -45 162 -45q123 0 211 80q39 35 85 112l70 -41q-128 -227 -371 -227q-197 0 -313 146q-97 120 -97 289zM186 485h619q-18 94 -61 157t-109 99 q-67 37 -138 37q-107 0 -198 -78q-93 -80 -113 -215zM255 1008l249 233l249 -233l-66 -52l-183 178l-182 -178z" />
<glyph unicode="&#xeb;" horiz-adv-x="990" vert-adv-y="1433" d="M91 413q0 188 117 317q112 124 292 124q145 0 250 -90q144 -123 148 -357h-718q5 -116 46 -189q42 -74 118 -119q77 -45 162 -45q123 0 211 80q39 35 85 112l70 -41q-128 -227 -371 -227q-197 0 -313 146q-97 120 -97 289zM186 485h619q-18 94 -61 157t-109 99 q-67 37 -138 37q-107 0 -198 -78q-93 -80 -113 -215zM257 1084q0 31 22 52q22 22 54 22q30 0 51 -22q22 -22 22 -52q0 -31 -22 -53q-21 -22 -53 -22q-31 0 -52 22q-22 22 -22 53zM597 1084q0 31 22 52q22 22 53 22q30 0 52 -22t22 -52q0 -31 -22 -53t-53 -22t-52 22 q-22 22 -22 53z" />
<glyph unicode="&#xee;" horiz-adv-x="374" vert-adv-y="1433" d="M-57 1008l249 233l249 -233l-66 -52l-183 178l-182 -178zM146 0v836h82v-836h-82z" />
<glyph unicode="&#xef;" horiz-adv-x="374" vert-adv-y="1433" d="M-5 1084q0 31 22 52q22 22 54 22q30 0 51 -22q22 -22 22 -52q0 -31 -22 -53q-21 -22 -53 -22q-31 0 -52 22q-22 22 -22 53zM147 0v836h82v-836h-82zM231 1084q0 31 22 52q22 22 53 22t52 -22q22 -21 22 -52t-22 -53q-21 -22 -53 -22q-31 0 -52 22q-22 22 -22 53z" />
<glyph unicode="&#xf1;" horiz-adv-x="901" vert-adv-y="1433" d="M146 0v836h82v-130q39 60 75 88q75 60 179 60q101 0 176 -56q70 -53 88 -152q9 -47 9 -119v-527h-82v527q0 119 -30 170q-23 39 -69 60q-47 21 -101 21q-136 0 -201 -114q-30 -52 -37 -109q-7 -52 -7 -120v-435h-82zM193 1043q52 118 142 118q46 0 123 -36 q87 -40 114 -40q47 0 83 79l52 -40q-39 -118 -143 -118q-37 0 -111 32q-99 44 -130 44q-49 0 -76 -78z" />
<glyph unicode="&#xf4;" horiz-adv-x="1058" vert-adv-y="1433" d="M91 420q0 184 134 312q128 122 312 122q179 0 310 -135q119 -122 119 -303q0 -208 -153 -335q-124 -103 -283 -103q-123 0 -229 64q-107 64 -162 172q-48 93 -48 206zM176 416q0 -155 106 -261q100 -101 244 -101q97 0 183 51q172 103 172 314q0 156 -107 258 q-106 101 -254 101q-158 0 -262 -127q-82 -101 -82 -235zM279 1008l249 233l249 -233l-66 -52l-183 178l-182 -178z" />
<glyph unicode="&#xf9;" horiz-adv-x="893" vert-adv-y="1433" d="M146 309v527h82v-498q0 -131 28 -184q24 -48 81 -75q51 -25 110 -25q85 0 147 49q54 42 66 129q5 37 5 106v498h82v-527q0 -108 -20 -160q-34 -87 -124 -134q-71 -37 -156 -37q-154 0 -241 103q-44 53 -53 120q-7 46 -7 108zM269 1191l86 54l187 -255l-60 -34z" />
<glyph unicode="&#xfb;" horiz-adv-x="893" vert-adv-y="1433" d="M146 309v527h82v-498q0 -131 28 -184q24 -48 81 -75q51 -25 110 -25q85 0 147 49q54 42 66 129q5 37 5 106v498h82v-527q0 -108 -20 -160q-34 -87 -124 -134q-71 -37 -156 -37q-154 0 -241 103q-44 53 -53 120q-7 46 -7 108zM197 1008l249 233l249 -233l-66 -52l-183 178 l-182 -178z" />
<glyph unicode="&#xfc;" horiz-adv-x="893" vert-adv-y="1433" d="M146 309v527h82v-498q0 -131 28 -184q24 -48 81 -75q51 -25 110 -25q85 0 147 49q54 42 66 129q5 37 5 106v498h82v-527q0 -108 -20 -160q-34 -87 -124 -134q-71 -37 -156 -37q-154 0 -241 103q-44 53 -53 120q-7 46 -7 108zM202 1084q0 31 22 52q22 22 54 22 q30 0 51 -22q22 -22 22 -52q0 -31 -22 -53q-21 -22 -53 -22q-31 0 -52 22q-22 22 -22 53zM542 1084q0 31 22 52q22 22 53 22q30 0 52 -22t22 -52q0 -31 -22 -53t-53 -22t-52 22q-22 22 -22 53z" />
<glyph unicode="&#xff;" horiz-adv-x="877" vert-adv-y="1433" d="M16 836h96l342 -742l311 742h95l-560 -1325h-93l204 475zM194 1084q0 31 22 52q22 22 54 22q30 0 51 -22q22 -22 22 -52q0 -31 -22 -53q-21 -22 -53 -22q-31 0 -52 22q-22 22 -22 53zM534 1084q0 31 22 52q22 22 53 22q30 0 52 -22t22 -52q0 -31 -22 -53t-53 -22t-52 22 q-22 22 -22 53z" />
<glyph unicode="&#x152;" horiz-adv-x="2194" vert-adv-y="1433" d="M109 681q0 158 71 302q85 176 249 283q179 118 391 118q258 0 459 -177q93 -82 153 -197v355h653v-82h-564v-495h550v-82h-550v-624h564v-82h-653v351q-69 -131 -179 -219q-195 -155 -432 -155q-180 0 -345 93q-187 105 -285 286q-82 153 -82 325zM200 679 q0 -159 77 -296q85 -151 240 -240q144 -83 299 -83q167 0 318 93q144 89 222 231q75 137 75 302q0 263 -196 448q-177 167 -425 167q-164 0 -313 -95q-144 -91 -222 -236q-75 -137 -75 -291z" />
<glyph unicode="&#x153;" horiz-adv-x="1778" vert-adv-y="1433" d="M91 413q0 193 140 325q125 116 300 116t298 -116q52 -48 93 -129q30 76 79 128q113 117 283 117q145 0 249 -82q149 -118 153 -360h-717q3 -109 39 -180q41 -81 119 -129q79 -49 171 -49q121 0 207 79q42 39 83 116l69 -42q-123 -229 -367 -229q-157 0 -270 103 q-59 55 -98 144q-41 -77 -89 -124q-126 -123 -306 -123q-192 0 -322 141q-114 124 -114 294zM176 413q0 -159 116 -266q99 -93 233 -93q105 0 197 60q161 104 161 297q0 161 -118 273q-97 93 -243 93q-157 0 -259 -124q-87 -107 -87 -240zM975 490h621q-15 85 -50 143 q-40 68 -110 107q-67 37 -149 37q-126 0 -213 -82q-72 -70 -99 -205z" />
<glyph unicode="&#x178;" horiz-adv-x="1052" vert-adv-y="1433" d="M27 1365h104l389 -685l400 685h105l-462 -782v-583h-89v583zM257 1590q0 33 23 55q23 23 57 23q31 0 54 -23t23 -55q0 -33 -23 -56t-55 -23q-33 0 -56 23t-23 56zM638 1590q0 32 23 55t57 23q31 0 54 -23t23 -55q0 -33 -23 -56t-55 -23q-33 0 -56 23t-23 56z" />
<glyph unicode="&#x2000;" horiz-adv-x="868" vert-adv-y="0" />
<glyph unicode="&#x2001;" horiz-adv-x="1736" vert-adv-y="0" />
<glyph unicode="&#x2002;" horiz-adv-x="868" vert-adv-y="0" />
<glyph unicode="&#x2003;" horiz-adv-x="1736" vert-adv-y="0" />
<glyph unicode="&#x2004;" horiz-adv-x="578" vert-adv-y="0" />
<glyph unicode="&#x2005;" horiz-adv-x="434" vert-adv-y="0" />
<glyph unicode="&#x2006;" horiz-adv-x="289" vert-adv-y="0" />
<glyph unicode="&#x2007;" horiz-adv-x="289" vert-adv-y="0" />
<glyph unicode="&#x2008;" horiz-adv-x="217" vert-adv-y="0" />
<glyph unicode="&#x2009;" horiz-adv-x="347" vert-adv-y="0" />
<glyph unicode="&#x200a;" horiz-adv-x="96" vert-adv-y="0" />
<glyph unicode="&#x2010;" horiz-adv-x="344" vert-adv-y="1433" d="M0 382v82h344v-82h-344z" />
<glyph unicode="&#x2011;" horiz-adv-x="344" vert-adv-y="1433" d="M0 382v82h344v-82h-344z" />
<glyph unicode="&#x2012;" horiz-adv-x="344" vert-adv-y="1433" d="M0 382v82h344v-82h-344z" />
<glyph unicode="&#x2013;" vert-adv-y="1433" d="M255 382v82h609v-82h-609z" />
<glyph unicode="&#x2014;" horiz-adv-x="1034" vert-adv-y="1433" d="M0 382v82h1034v-82h-1034z" />
<glyph unicode="&#x2018;" horiz-adv-x="465" vert-adv-y="1433" d="M130 1034l152 410l54 -20l-123 -415z" />
<glyph unicode="&#x2019;" horiz-adv-x="465" vert-adv-y="1433" d="M130 1029l123 415l83 -25l-152 -410z" />
<glyph unicode="&#x201a;" horiz-adv-x="465" vert-adv-y="1433" d="M130 -281l123 415l83 -25l-152 -410z" />
<glyph unicode="&#x201c;" horiz-adv-x="702" vert-adv-y="1433" d="M130 1034l152 410l54 -20l-123 -415zM367 1034l151 410l55 -20l-124 -415z" />
<glyph unicode="&#x201d;" horiz-adv-x="702" vert-adv-y="1433" d="M130 1029l123 415l83 -25l-152 -410zM367 1029l123 415l83 -25l-152 -410z" />
<glyph unicode="&#x2022;" horiz-adv-x="1365" vert-adv-y="1433" d="M401 694q0 120 84 202q85 82 204 82q113 0 196 -83q84 -83 84 -201t-83 -201t-201 -83q-116 0 -199 82q-85 84 -85 202z" />
<glyph unicode="&#x2026;" horiz-adv-x="1312" vert-adv-y="1433" d="M144 60q0 32 22 53q22 22 54 22q30 0 51 -22q22 -21 22 -52t-22 -53t-53 -22t-52 22q-22 22 -22 52zM581 60q0 32 22 53q22 22 54 22q30 0 51 -22q22 -21 22 -52t-22 -53t-53 -22q-30 0 -52 22t-22 52zM1018 61q0 31 22 53t54 22q30 0 52 -22t22 -53t-22 -53t-53 -22 t-53 22t-22 53z" />
<glyph unicode="&#x202f;" horiz-adv-x="347" vert-adv-y="0" />
<glyph unicode="&#x2039;" horiz-adv-x="494" vert-adv-y="1433" d="M68 423l264 306l52 -49l-218 -257l218 -256l-52 -49z" />
<glyph unicode="&#x203a;" horiz-adv-x="494" vert-adv-y="1433" d="M109 167l219 256l-219 257l52 49l264 -306l-264 -305z" />
<glyph unicode="&#x205f;" horiz-adv-x="434" vert-adv-y="0" />
<glyph unicode="&#x20ac;" vert-adv-y="1433" d="M38 544l23 68h107q-1 22 -1 52q0 68 4 104h-133l23 68h117q25 172 85 291q65 129 173 200q116 77 270 77q223 0 343 -146l-30 -78q-51 60 -87 86q-91 67 -224 67q-311 0 -409 -350q-19 -70 -28 -147h639l-22 -68h-623q-1 -26 -1 -82q0 -49 2 -74h569l-21 -68h-543l1 -7 q16 -112 55 -206q78 -184 214 -248q70 -34 152 -34q162 0 312 122v-89q-141 -103 -318 -103q-287 0 -430 277q-68 130 -84 288h-135z" />
<glyph unicode="&#x2122;" horiz-adv-x="1477" vert-adv-y="1433" d="M1 1293v72h464v-72h-195v-706h-76v706h-193zM545 587l92 841l332 -713l336 712l93 -840h-78l-63 568l-288 -613l-286 612l-62 -567h-76z" />
<glyph unicode="&#x25fc;" horiz-adv-x="835" vert-adv-y="1670" d="M0 0v835h835v-835h-835z" />
</font>
</defs>
</svg>
